<?xml version="1.0" standalone="no"?>
<!DOCTYPE svg PUBLIC "-//W3C//DTD SVG 20010904//EN"
 "http://www.w3.org/TR/2001/REC-SVG-20010904/DTD/svg10.dtd">
<svg version="1.0" xmlns="http://www.w3.org/2000/svg"
 width="640.000000pt" height="640.000000pt" viewBox="0 0 640.000000 640.000000"
 preserveAspectRatio="xMidYMid meet">
<metadata>
Created by potrace 1.14, written by Peter Selinger 2001-2017
</metadata>
<g transform="translate(0.000000,640.000000) scale(0.100000,-0.100000)"
fill="#000000" stroke="none">
<path d="M2940 5669 c-1155 -103 -2094 -984 -2276 -2139 -27 -165 -27 -597 -1
-760 132 -827 645 -1524 1392 -1891 247 -122 503 -199 800 -241 118 -17 502
-16 625 1 476 65 923 258 1287 552 113 92 295 279 391 402 217 278 379 611
462 949 57 233 65 309 65 613 0 248 -3 295 -23 408 -45 247 -118 476 -218 684
-462 950 -1456 1515 -2504 1422z m462 -1119 c155 -129 284 -236 287 -238 3 -1
5 72 3 163 -3 164 -3 165 22 190 l25 25 252 0 c246 0 253 -1 276 -22 l23 -21
0 -418 0 -418 395 -327 c217 -181 395 -331 395 -334 0 -3 -130 -4 -290 -2
l-290 3 0 -768 c0 -749 -1 -769 -20 -801 -11 -18 -34 -41 -52 -52 -32 -19 -52
-20 -460 -20 l-428 0 0 570 c0 487 -2 575 -15 600 -31 60 -29 60 -385 60 -285
0 -328 -2 -349 -16 -51 -36 -51 -41 -51 -649 l0 -565 -430 0 c-466 0 -458 -1
-510 55 l-25 27 -5 776 -5 777 -288 0 c-158 0 -287 2 -286 5 0 3 136 121 302
262 166 142 597 509 957 818 360 308 658 559 662 557 4 -1 135 -108 290 -237z"/>
</g>
</svg>
